<svg xmlns="http://www.w3.org/2000/svg" version="1.0" width="500.000000pt" height="478.000000pt" viewBox="0 0 500.000000 478.000000" preserveAspectRatio="xMidYMid meet">
  <g transform="matrix(0.1, 0, 0, -0.104603, 0, 478)" fill="#000000" stroke="none">
    <path d="M0 2390 l0 -2390 2500 0 2500 0 0 2390 0 2390 -2500 0 -2500 0 0 -2390z m1178 1716 c39 -20 57 -43 86 -113 14 -35 37 -87 50 -115 58 -128 104 -233 235 -532 77 -175 142 -321 145 -323 14 -14 37 27 106 187 16 36 47 108 70 160 23 52 53 122 67 155 14 33 31 74 39 90 7 17 51 117 98 223 96 220 105 236 149 262 30 18 52 20 300 20 170 0 276 -4 288 -11 11 -5 24 -22 30 -36 11 -28 15 -17 -141 -318 -32 -60 -92 -177 -135 -260 -43 -82 -92 -177 -110 -210 -18 -33 -67 -127 -110 -210 -42 -82 -108 -209 -146 -281 -38 -72 -69 -138 -69 -146 0 -8 56 -125 125 -260 121 -239 135 -273 116 -294 -5 -5 -20 -29 -33 -54 -21 -38 -79 -138 -158 -275 -10 -16 -42 -73 -72 -125 -31 -52 -90 -156 -133 -230 -43 -74 -110 -191 -150 -260 -89 -155 -98 -170 -107 -170 -9 0 41 128 108 275 20 45 82 189 121 284 l34 84 -22 51 c-12 28 -36 83 -54 121 -18 39 -66 142 -106 230 -40 88 -77 166 -82 172 -14 19 -26 6 -56 -61 -16 -33 -43 -92 -61 -131 -18 -38 -43 -92 -55 -120 -13 -27 -42 -90 -65 -140 -23 -49 -69 -148 -102 -220 -161 -348 -163 -353 -191 -383 -34 -36 -79 -42 -337 -42 -277 0 -293 4 -298 60 -2 28 27 93 146 330 82 162 247 489 366 727 l218 432 -122 238 c-68 131 -168 326 -223 433 -54 107 -137 267 -182 355 -200 386 -198 382 -169 423 15 22 17 22 290 22 216 0 281 -3 302 -14z m2426 -122 c-4 -14 -19 -51 -34 -82 -15 -32 -30 -66 -34 -77 -3 -11 -37 -92 -75 -180 -38 -87 -67 -163 -65 -167 3 -4 56 -8 117 -8 432 0 690 -196 763 -578 17 -90 19 -436 3 -514 -30 -145 -124 -266 -264 -340 l-69 -36 38 -16 c21 -9 43 -16 48 -16 27 0 120 -60 170 -111 62 -61 92 -117 114 -209 19 -80 19 -529 0 -631 -33 -168 -82 -265 -186 -369 -87 -86 -178 -137 -305 -172 -78 -21 -96 -22 -781 -25 l-701 -4 -27 31 -26 32 0 613 0 614 31 58 c18 32 35 63 40 68 4 6 23 37 42 70 19 33 69 121 112 195 42 74 89 155 102 180 14 25 38 65 53 90 14 25 46 79 70 120 113 197 134 230 142 217 4 -6 8 -117 8 -245 0 -212 2 -233 18 -240 9 -4 148 -7 307 -7 328 0 362 6 429 72 49 50 58 85 64 253 5 185 -8 265 -54 319 -60 70 -84 75 -381 79 -157 2 -263 7 -263 13 0 8 98 182 185 329 18 30 111 190 206 355 157 274 199 344 207 345 1 0 -1 -12 -4 -26z" style="fill: #fff;"/>
    <path d="M2908 1750 c-17 -10 -18 -40 -18 -400 l0 -390 23 -5 c13 -4 172 -5 353 -3 363 4 375 6 428 69 53 62 56 83 56 335 0 218 -1 237 -21 280 -23 48 -63 83 -119 104 -46 18 -676 26 -702 10z" style="fill: #fff;"/>
  </g>
</svg>

